<?xml version="1.0" encoding="utf-8"?>
<!-- Generator: Adobe Illustrator 25.4.8, SVG Export Plug-In . SVG Version: 6.00 Build 0)  -->
<svg version="1.1" id="Layer_1" xmlns="http://www.w3.org/2000/svg" xmlns:xlink="http://www.w3.org/1999/xlink" x="0px" y="0px"
	 viewBox="0 0 100 100" style="enable-background:new 0 0 100 100;" xml:space="preserve">
<style type="text/css">
	.st0{fill:none;stroke:white;stroke-miterlimit:10;}
</style>
<path class="st0" d="M74.1,50.2c-2.8-2.8,24.6,24.7,24.6,24.7L74.6,99.2c0,0-25.9-26.1-24.6-24.8l-0.3,0.1
	c2.8-2.8-24.5,24.7-24.5,24.7L1,74.9c0,0,27.4-27.6,24.5-24.6l0.3-0.2L1,25.1c0,0,6-6.1,12.1-12.1c6-6.1,12-12.1,12-12.1
	s28.3,28.5,24.4,24.5l1.2-0.5c-6.1,6.2,23.9-24,23.9-24l24.1,24.3c0,0-30.6,30.8-23.7,23.8"/>
</svg>
